# xmcd
# 
# Track frame offsets:
#     150
#     27147
#     48157
#     57545
#     77677
#     94925
#     111757
#     129848
#     156868
#     180388
# 
# Disc length: 2953
# 
# Revision: 4
# Processed by: cddbd v1.5.2PL0 Copyright (c) Steve Scherf et al.
# Submitted via: fre:ac v1.0.17
# 
DISCID=740b870a
DTITLE=Saez - L'ALHAMBRA
DYEAR=2008
DGENRE=Rock
TTITLE0=Chanson pour mon enterrement
TTITLE1=Au-delà du brouillard
TTITLE2=Au-delà du brouillard Thème
TTITLE3=Je cherche encore
TTITLE4=Les bars du port
TTITLE5=A l'Alhambra
TTITLE6=Quand on perd son amour
TTITLE7=L'abattoir
TTITLE8=On s'endort sur des braises
TTITLE9=Tango
EXTD=
EXTT0=
EXTT1=
EXTT2=
EXTT3=
EXTT4=
EXTT5=
EXTT6=
EXTT7=
EXTT8=
EXTT9=
PLAYORDER=
